<svg xmlns="http://www.w3.org/2000/svg" xmlns:xlink="http://www.w3.org/1999/xlink" contentStyleType="text/css" data-diagram-type="SEQUENCE" height="697px" preserveAspectRatio="none" style="width:1071px;height:697px;background:#FFFFFF;" version="1.1" viewBox="0 0 1071 697" width="1071px" zoomAndPan="magnify"><?plantuml 1.2026.6?><defs/><g><g class="title" data-source-line="1"><text fill="#000000" font-family="sans-serif" font-size="14" font-weight="700" lengthAdjust="spacing" textLength="357.834" x="353.2688" y="29.5332">Sequence Diagram - Upload and Separation Workflow</text></g><rect fill="none" height="368.0547" style="stroke:#000000;stroke-width:1.5;" width="1045.3716" x="10" y="229.2734"/><g class="participant-lifeline" data-entity-uid="part1" data-qualified-name="User" data-source-line="3" id="part1-lifeline"><g><title>Student . Researcher User</title><rect fill="#000000" fill-opacity="0.00000" height="493.1094" width="8" x="101.8721" y="121.2188"/><line style="stroke:#181818;stroke-width:0.5;stroke-dasharray:5,5;" x1="105" x2="105" y1="121.2188" y2="614.3281"/></g></g><g class="participant-lifeline" data-entity-uid="part2" data-qualified-name="UI" data-source-line="4" id="part2-lifeline"><g><title>User Interface</title><rect fill="#000000" fill-opacity="0.00000" height="493.1094" width="8" x="307.98" y="121.2188"/><line style="stroke:#181818;stroke-width:0.5;stroke-dasharray:5,5;" x1="311.0181" x2="311.0181" y1="121.2188" y2="614.3281"/></g></g><g class="participant-lifeline" data-entity-uid="part3" data-qualified-name="Validator" data-source-line="5" id="part3-lifeline"><g><title>Audio Validator</title><rect fill="#000000" fill-opacity="0.00000" height="493.1094" width="8" x="424.478" y="121.2188"/><line style="stroke:#181818;stroke-width:0.5;stroke-dasharray:5,5;" x1="428.0024" x2="428.0024" y1="121.2188" y2="614.3281"/></g></g><g class="participant-lifeline" data-entity-uid="part4" data-qualified-name="Preprocess" data-source-line="6" id="part4-lifeline"><g><title>Preprocessing Service</title><rect fill="#000000" fill-opacity="0.00000" height="493.1094" width="8" x="565.9844" y="121.2188"/><line style="stroke:#181818;stroke-width:0.5;stroke-dasharray:5,5;" x1="569.9536" x2="569.9536" y1="121.2188" y2="614.3281"/></g></g><g class="participant-lifeline" data-entity-uid="part5" data-qualified-name="Model" data-source-line="7" id="part5-lifeline"><g><title>Separation Model Service</title><rect fill="#000000" fill-opacity="0.00000" height="493.1094" width="8" x="740.1699" y="121.2188"/><line style="stroke:#181818;stroke-width:0.5;stroke-dasharray:5,5;" x1="744.0151" x2="744.0151" y1="121.2188" y2="614.3281"/></g></g><g class="participant-lifeline" data-entity-uid="part6" data-qualified-name="Result" data-source-line="8" id="part6-lifeline"><g><title>Result Manager</title><rect fill="#000000" fill-opacity="0.00000" height="493.1094" width="8" x="893.7383" y="121.2188"/><line style="stroke:#181818;stroke-width:0.5;stroke-dasharray:5,5;" x1="897.3247" x2="897.3247" y1="121.2188" y2="614.3281"/></g></g><g class="participant-lifeline" data-entity-uid="part7" data-qualified-name="Storage" data-source-line="9" id="part7-lifeline"><g><title>Storage</title><rect fill="#000000" fill-opacity="0.00000" height="493.1094" width="8" x="1013.8545" y="121.2188"/><line style="stroke:#181818;stroke-width:0.5;stroke-dasharray:5,5;" x1="1017.3374" x2="1017.3374" y1="121.2188" y2="614.3281"/></g></g><g class="participant participant-head" data-entity-uid="part1" data-qualified-name="User" data-source-line="3" id="part1-head"><text fill="#000000" font-family="sans-serif" font-size="14" lengthAdjust="spacing" textLength="165.7441" x="20" y="118.1426">Student / Researcher User</text><ellipse cx="105.8721" cy="52.1094" fill="#E2E2F0" rx="8" ry="8" style="stroke:#181818;stroke-width:0.5;"/><path d="M105.8721,60.1094 L105.8721,87.1094 M92.8721,68.1094 L118.8721,68.1094 M105.8721,87.1094 L92.8721,102.1094 M105.8721,87.1094 L118.8721,102.1094" fill="none" style="stroke:#181818;stroke-width:0.5;"/></g><g class="participant participant-tail" data-entity-uid="part1" data-qualified-name="User" data-source-line="3" id="part1-tail"><text fill="#000000" font-family="sans-serif" font-size="14" lengthAdjust="spacing" textLength="165.7441" x="20" y="627.8613">Student / Researcher User</text><ellipse cx="105.8721" cy="639.4375" fill="#E2E2F0" rx="8" ry="8" style="stroke:#181818;stroke-width:0.5;"/><path d="M105.8721,647.4375 L105.8721,674.4375 M92.8721,655.4375 L118.8721,655.4375 M105.8721,674.4375 L92.8721,689.4375 M105.8721,674.4375 L118.8721,689.4375" fill="none" style="stroke:#181818;stroke-width:0.5;"/></g><g class="participant participant-head" data-entity-uid="part2" data-qualified-name="UI" data-source-line="4" id="part2-head"><rect fill="#E2E2F0" height="31.6094" rx="2.5" ry="2.5" style="stroke:#181818;stroke-width:0.5;" width="101.9238" x="261.0181" y="88.6094"/><text fill="#000000" font-family="sans-serif" font-size="14" lengthAdjust="spacing" textLength="87.9238" x="268.0181" y="110.1426">User Interface</text></g><g class="participant participant-tail" data-entity-uid="part2" data-qualified-name="UI" data-source-line="4" id="part2-tail"><rect fill="#E2E2F0" height="31.6094" rx="2.5" ry="2.5" style="stroke:#181818;stroke-width:0.5;" width="101.9238" x="261.0181" y="613.3281"/><text fill="#000000" font-family="sans-serif" font-size="14" lengthAdjust="spacing" textLength="87.9238" x="268.0181" y="634.8613">User Interface</text></g><g class="participant participant-head" data-entity-uid="part3" data-qualified-name="Validator" data-source-line="5" id="part3-head"><rect fill="#E2E2F0" height="31.6094" rx="2.5" ry="2.5" style="stroke:#181818;stroke-width:0.5;" width="108.9512" x="374.0024" y="88.6094"/><text fill="#000000" font-family="sans-serif" font-size="14" lengthAdjust="spacing" textLength="94.9512" x="381.0024" y="110.1426">Audio Validator</text></g><g class="participant participant-tail" data-entity-uid="part3" data-qualified-name="Validator" data-source-line="5" id="part3-tail"><rect fill="#E2E2F0" height="31.6094" rx="2.5" ry="2.5" style="stroke:#181818;stroke-width:0.5;" width="108.9512" x="374.0024" y="613.3281"/><text fill="#000000" font-family="sans-serif" font-size="14" lengthAdjust="spacing" textLength="94.9512" x="381.0024" y="634.8613">Audio Validator</text></g><g class="participant participant-head" data-entity-uid="part4" data-qualified-name="Preprocess" data-source-line="6" id="part4-head"><rect fill="#E2E2F0" height="31.6094" rx="2.5" ry="2.5" style="stroke:#181818;stroke-width:0.5;" width="154.0615" x="492.9536" y="88.6094"/><text fill="#000000" font-family="sans-serif" font-size="14" lengthAdjust="spacing" textLength="140.0615" x="499.9536" y="110.1426">Preprocessing Service</text></g><g class="participant participant-tail" data-entity-uid="part4" data-qualified-name="Preprocess" data-source-line="6" id="part4-tail"><rect fill="#E2E2F0" height="31.6094" rx="2.5" ry="2.5" style="stroke:#181818;stroke-width:0.5;" width="154.0615" x="492.9536" y="613.3281"/><text fill="#000000" font-family="sans-serif" font-size="14" lengthAdjust="spacing" textLength="140.0615" x="499.9536" y="634.8613">Preprocessing Service</text></g><g class="participant participant-head" data-entity-uid="part5" data-qualified-name="Model" data-source-line="7" id="part5-head"><rect fill="#E2E2F0" height="31.6094" rx="2.5" ry="2.5" style="stroke:#181818;stroke-width:0.5;" width="174.3096" x="657.0151" y="88.6094"/><text fill="#000000" font-family="sans-serif" font-size="14" lengthAdjust="spacing" textLength="160.3096" x="664.0151" y="110.1426">Separation Model Service</text></g><g class="participant participant-tail" data-entity-uid="part5" data-qualified-name="Model" data-source-line="7" id="part5-tail"><rect fill="#E2E2F0" height="31.6094" rx="2.5" ry="2.5" style="stroke:#181818;stroke-width:0.5;" width="174.3096" x="657.0151" y="613.3281"/><text fill="#000000" font-family="sans-serif" font-size="14" lengthAdjust="spacing" textLength="160.3096" x="664.0151" y="634.8613">Separation Model Service</text></g><g class="participant participant-head" data-entity-uid="part6" data-qualified-name="Result" data-source-line="8" id="part6-head"><rect fill="#E2E2F0" height="31.6094" rx="2.5" ry="2.5" style="stroke:#181818;stroke-width:0.5;" width="112.8271" x="841.3247" y="88.6094"/><text fill="#000000" font-family="sans-serif" font-size="14" lengthAdjust="spacing" textLength="98.8271" x="848.3247" y="110.1426">Result Manager</text></g><g class="participant participant-tail" data-entity-uid="part6" data-qualified-name="Result" data-source-line="8" id="part6-tail"><rect fill="#E2E2F0" height="31.6094" rx="2.5" ry="2.5" style="stroke:#181818;stroke-width:0.5;" width="112.8271" x="841.3247" y="613.3281"/><text fill="#000000" font-family="sans-serif" font-size="14" lengthAdjust="spacing" textLength="98.8271" x="848.3247" y="634.8613">Result Manager</text></g><g class="participant participant-head" data-entity-uid="part7" data-qualified-name="Storage" data-source-line="9" id="part7-head"><text fill="#000000" font-family="sans-serif" font-size="14" lengthAdjust="spacing" textLength="49.0342" x="990.3374" y="118.1426">Storage</text><path d="M999.8545,67.6094 C999.8545,57.6094 1017.8545,57.6094 1017.8545,57.6094 C1017.8545,57.6094 1035.8545,57.6094 1035.8545,67.6094 L1035.8545,93.6094 C1035.8545,103.6094 1017.8545,103.6094 1017.8545,103.6094 C1017.8545,103.6094 999.8545,103.6094 999.8545,93.6094 L999.8545,67.6094" fill="#E2E2F0" style="stroke:#181818;stroke-width:0.5;"/><path d="M999.8545,67.6094 C999.8545,77.6094 1017.8545,77.6094 1017.8545,77.6094 C1017.8545,77.6094 1035.8545,77.6094 1035.8545,67.6094" fill="none" style="stroke:#181818;stroke-width:0.5;"/></g><g class="participant participant-tail" data-entity-uid="part7" data-qualified-name="Storage" data-source-line="9" id="part7-tail"><text fill="#000000" font-family="sans-serif" font-size="14" lengthAdjust="spacing" textLength="49.0342" x="990.3374" y="627.8613">Storage</text><path d="M999.8545,640.9375 C999.8545,630.9375 1017.8545,630.9375 1017.8545,630.9375 C1017.8545,630.9375 1035.8545,630.9375 1035.8545,640.9375 L1035.8545,666.9375 C1035.8545,676.9375 1017.8545,676.9375 1017.8545,676.9375 C1017.8545,676.9375 999.8545,676.9375 999.8545,666.9375 L999.8545,640.9375" fill="#E2E2F0" style="stroke:#181818;stroke-width:0.5;"/><path d="M999.8545,640.9375 C999.8545,650.9375 1017.8545,650.9375 1017.8545,650.9375 C1017.8545,650.9375 1035.8545,650.9375 1035.8545,640.9375" fill="none" style="stroke:#181818;stroke-width:0.5;"/></g><g class="message" data-entity-1="part1" data-entity-2="part2" data-source-line="11" id="msg1"><polygon fill="#181818" points="299.98,149.5703,309.98,153.5703,299.98,157.5703,303.98,153.5703" style="stroke:#181818;stroke-width:1;stroke-linejoin:miter;stroke-miterlimit:10;"/><line style="stroke:#181818;stroke-width:1;" x1="105.8721" x2="305.98" y1="153.5703" y2="153.5703"/><text fill="#000000" font-family="sans-serif" font-size="13" lengthAdjust="spacing" textLength="159.7324" x="112.8721" y="148.7139">Select and upload audio file</text></g><g class="message" data-entity-1="part2" data-entity-2="part3" data-source-line="12" id="msg2"><polygon fill="#181818" points="416.478,179.9219,426.478,183.9219,416.478,187.9219,420.478,183.9219" style="stroke:#181818;stroke-width:1;stroke-linejoin:miter;stroke-miterlimit:10;"/><line style="stroke:#181818;stroke-width:1;" x1="311.98" x2="422.478" y1="183.9219" y2="183.9219"/><text fill="#000000" font-family="sans-serif" font-size="13" lengthAdjust="spacing" textLength="67.209" x="318.98" y="179.0654">Validate file</text></g><g class="message" data-entity-1="part3" data-entity-2="part2" data-source-line="13" id="msg3"><polygon fill="#181818" points="322.98,210.2734,312.98,214.2734,322.98,218.2734,318.98,214.2734" style="stroke:#181818;stroke-width:1;stroke-linejoin:miter;stroke-miterlimit:10;"/><line style="stroke:#181818;stroke-width:1;stroke-dasharray:2,2;" x1="316.98" x2="427.478" y1="214.2734" y2="214.2734"/><text fill="#000000" font-family="sans-serif" font-size="13" lengthAdjust="spacing" textLength="92.498" x="328.98" y="209.417">Validation result</text></g><path d="M10,229.2734 L70.1709,229.2734 L70.1709,237.625 L60.1709,247.625 L10,247.625 L10,229.2734" fill="#EEEEEE" style="stroke:#000000;stroke-width:1.5;"/><rect fill="none" height="368.0547" style="stroke:#000000;stroke-width:1.5;" width="1045.3716" x="10" y="229.2734"/><text fill="#000000" font-family="sans-serif" font-size="13" font-weight="700" lengthAdjust="spacing" textLength="15.1709" x="25" y="243.7686">alt</text><text fill="#000000" font-family="sans-serif" font-size="11" font-weight="700" lengthAdjust="spacing" textLength="51.3423" x="85.1709" y="242.6924">[valid file]</text><g class="message" data-entity-1="part2" data-entity-2="part7" data-source-line="16" id="msg4"><polygon fill="#181818" points="1005.8545,265.9766,1015.8545,269.9766,1005.8545,273.9766,1009.8545,269.9766" style="stroke:#181818;stroke-width:1;stroke-linejoin:miter;stroke-miterlimit:10;"/><line style="stroke:#181818;stroke-width:1;" x1="311.98" x2="1011.8545" y1="269.9766" y2="269.9766"/><text fill="#000000" font-family="sans-serif" font-size="13" lengthAdjust="spacing" textLength="106.9707" x="318.98" y="265.1201">Save uploaded file</text></g><g class="message" data-entity-1="part2" data-entity-2="part4" data-source-line="17" id="msg5"><polygon fill="#181818" points="557.9844,296.3281,567.9844,300.3281,557.9844,304.3281,561.9844,300.3281" style="stroke:#181818;stroke-width:1;stroke-linejoin:miter;stroke-miterlimit:10;"/><line style="stroke:#181818;stroke-width:1;" x1="311.98" x2="563.9844" y1="300.3281" y2="300.3281"/><text fill="#000000" font-family="sans-serif" font-size="13" lengthAdjust="spacing" textLength="81.6689" x="318.98" y="295.4717">Prepare audio</text></g><g class="message" data-entity-1="part4" data-entity-2="part2" data-source-line="18" id="msg6"><polygon fill="#181818" points="322.98,326.6797,312.98,330.6797,322.98,334.6797,318.98,330.6797" style="stroke:#181818;stroke-width:1;stroke-linejoin:miter;stroke-miterlimit:10;"/><line style="stroke:#181818;stroke-width:1;stroke-dasharray:2,2;" x1="316.98" x2="568.9844" y1="330.6797" y2="330.6797"/><text fill="#000000" font-family="sans-serif" font-size="13" lengthAdjust="spacing" textLength="147.4307" x="328.98" y="325.8232">Prepared audio reference</text></g><g class="message" data-entity-1="part2" data-entity-2="part5" data-source-line="19" id="msg7"><polygon fill="#181818" points="732.1699,357.0313,742.1699,361.0313,732.1699,365.0313,736.1699,361.0313" style="stroke:#181818;stroke-width:1;stroke-linejoin:miter;stroke-miterlimit:10;"/><line style="stroke:#181818;stroke-width:1;" x1="311.98" x2="738.1699" y1="361.0313" y2="361.0313"/><text fill="#000000" font-family="sans-serif" font-size="13" lengthAdjust="spacing" textLength="88.1689" x="318.98" y="356.1748">Run separation</text></g><g class="message" data-entity-1="part5" data-entity-2="part2" data-source-line="20" id="msg8"><polygon fill="#181818" points="322.98,387.3828,312.98,391.3828,322.98,395.3828,318.98,391.3828" style="stroke:#181818;stroke-width:1;stroke-linejoin:miter;stroke-miterlimit:10;"/><line style="stroke:#181818;stroke-width:1;stroke-dasharray:2,2;" x1="316.98" x2="743.1699" y1="391.3828" y2="391.3828"/><text fill="#000000" font-family="sans-serif" font-size="13" lengthAdjust="spacing" textLength="131.5361" x="328.98" y="386.5264">Heart and lung outputs</text></g><g class="message" data-entity-1="part2" data-entity-2="part6" data-source-line="21" id="msg9"><polygon fill="#181818" points="885.7383,417.7344,895.7383,421.7344,885.7383,425.7344,889.7383,421.7344" style="stroke:#181818;stroke-width:1;stroke-linejoin:miter;stroke-miterlimit:10;"/><line style="stroke:#181818;stroke-width:1;" x1="311.98" x2="891.7383" y1="421.7344" y2="421.7344"/><text fill="#000000" font-family="sans-serif" font-size="13" lengthAdjust="spacing" textLength="150.2871" x="318.98" y="416.8779">Register processing result</text></g><g class="message" data-entity-1="part6" data-entity-2="part7" data-source-line="22" id="msg10"><polygon fill="#181818" points="1005.8545,448.0859,1015.8545,452.0859,1005.8545,456.0859,1009.8545,452.0859" style="stroke:#181818;stroke-width:1;stroke-linejoin:miter;stroke-miterlimit:10;"/><line style="stroke:#181818;stroke-width:1;" x1="897.7383" x2="1011.8545" y1="452.0859" y2="452.0859"/><text fill="#000000" font-family="sans-serif" font-size="13" lengthAdjust="spacing" textLength="96.1162" x="904.7383" y="447.2295">Save output files</text></g><g class="message" data-entity-1="part7" data-entity-2="part6" data-source-line="23" id="msg11"><polygon fill="#181818" points="908.7383,478.4375,898.7383,482.4375,908.7383,486.4375,904.7383,482.4375" style="stroke:#181818;stroke-width:1;stroke-linejoin:miter;stroke-miterlimit:10;"/><line style="stroke:#181818;stroke-width:1;stroke-dasharray:2,2;" x1="902.7383" x2="1016.8545" y1="482.4375" y2="482.4375"/><text fill="#000000" font-family="sans-serif" font-size="13" lengthAdjust="spacing" textLength="94.6689" x="914.7383" y="477.5811">Output file paths</text></g><g class="message" data-entity-1="part6" data-entity-2="part2" data-source-line="24" id="msg12"><polygon fill="#181818" points="322.98,508.7891,312.98,512.7891,322.98,516.7891,318.98,512.7891" style="stroke:#181818;stroke-width:1;stroke-linejoin:miter;stroke-miterlimit:10;"/><line style="stroke:#181818;stroke-width:1;stroke-dasharray:2,2;" x1="316.98" x2="896.7383" y1="512.7891" y2="512.7891"/><text fill="#000000" font-family="sans-serif" font-size="13" lengthAdjust="spacing" textLength="93.9072" x="328.98" y="507.9326">Result summary</text></g><g class="message" data-entity-1="part2" data-entity-2="part1" data-source-line="25" id="msg13"><polygon fill="#181818" points="116.8721,539.1406,106.8721,543.1406,116.8721,547.1406,112.8721,543.1406" style="stroke:#181818;stroke-width:1;stroke-linejoin:miter;stroke-miterlimit:10;"/><line style="stroke:#181818;stroke-width:1;stroke-dasharray:2,2;" x1="110.8721" x2="310.98" y1="543.1406" y2="543.1406"/><text fill="#000000" font-family="sans-serif" font-size="13" lengthAdjust="spacing" textLength="182.1079" x="122.8721" y="538.2842">Show result and download links</text></g><line style="stroke:#000000;stroke-width:1;stroke-dasharray:2,2;" x1="10" x2="1055.3716" y1="552.1406" y2="552.1406"/><text fill="#000000" font-family="sans-serif" font-size="11" font-weight="700" lengthAdjust="spacing" textLength="61.1177" x="15" y="563.5596">[invalid file]</text><g class="message" data-entity-1="part2" data-entity-2="part1" data-source-line="27" id="msg14"><polygon fill="#181818" points="116.8721,585.3281,106.8721,589.3281,116.8721,593.3281,112.8721,589.3281" style="stroke:#181818;stroke-width:1;stroke-linejoin:miter;stroke-miterlimit:10;"/><line style="stroke:#181818;stroke-width:1;stroke-dasharray:2,2;" x1="110.8721" x2="310.98" y1="589.3281" y2="589.3281"/><text fill="#000000" font-family="sans-serif" font-size="13" lengthAdjust="spacing" textLength="122.1162" x="122.8721" y="584.4717">Show validation error</text></g><?plantuml-src PLBBRW8n3BpdAopkgzuvLAhKGpcWLaMqPtVNG4H8jau2wj_NUUmBRabcCfwn7NGm13lwZMHRWbUDHyOBDB3lZSCEq7Q2ziWOjBFmxVXyCEwc5BR1CQns8NPa0pp19tb2Ra_4iFV4Aq2V3qe-1ztg7eMsIY-miO7uW2qLqcP9UOcTTl25HdSeDJ9dl2sf7qmzkvQyr_OeFlcgg-Y4B7_CicnTHsRnARyi-P8gcW1Rj7YieSgJ4ZluWvvI3nmBci5wLYe7RPub7QobYA4sv6R6sjSSyg0DAM48Rqmez7gcWaz8C-ZLfvI2Ynk5ulAQdiidW29R_IGFUALQdUv8KxE4box8L1mAPGQEzIjdYC5q84xxCogMtgxXCrhmOyi5Bi0ez2OhK_fYeapGnT37u4UPsdtHeQFsiZGm6tTD3WFhCMsHorcJve0sS-NtYGCzXfEV2Gukwzt7omNvhxfBO9gnr3gvMtMJetJkPlEGZRPdhyZ8acZxC9mxWUiqKsAMJIVRgNy0?></g></svg>